# AST/ASF file generated using VICON BodyLanguage
# -----------------------------------------------
:version 1.10
:name VICON
:units
  mass 1.0
  length 0.45
  angle deg
:documentation
   .ast/.asf automatically generated from VICON data using
   VICON BodyBuilder and BodyLanguage model FoxedUp or BRILLIANT.MOD
:root
   order TX TY TZ RX RY RZ
   axis XYZ
   position 0 0 0  
   orientation 0 0 0 
:bonedata
  begin
     id 1 
     name lhipjoint
     direction 0.521452 -0.77106 0.36545 
     length 2.0933 
     axis 0 0 0  XYZ
  end
  begin
     id 2 
     name lfemur
     direction 0.34202 -0.939693 0  
     length 6.83441  
     axis 0 0 20  XYZ
    dof rx ry rz
    limits (-160.0 20.0)
           (-70.0 70.0)
           (-60.0 70.0)
  end
  begin
     id 3 
     name ltibia
     direction 0.34202 -0.939693 0   
     length 7.28749   
     axis 0 0 20   XYZ
    dof rx
    limits (-10.0 170.0)
  end
  begin
     id 4 
     name lfoot
     direction 0.100608 -0.276418 0.955757   
     length 1.52195   
     axis -90 7.62852e-016 20   XYZ
    dof rx rz
    limits (-45.0 90.0)
           (-70.0 20.0)
  end
  begin
     id 5 
     name ltoes
     direction 1.53558e-011 -4.21907e-011 1   
     length 0.770459   
     axis -90 7.62852e-016 20   XYZ
    dof rx
    limits (-90.0 20.0)
  end
  begin
     id 6 
     name rhipjoint
     direction -0.488071 -0.788702 0.373812   
     length 2.04648  
     axis 0 0 0  XYZ 
  end
  begin
     id 7 
     name rfemur
     direction -0.34202 -0.939693 0   
     length 6.92583   
     axis 0 0 -20   XYZ
    dof rx ry rz
    limits (-160.0 20.0)
           (-70.0 70.0)
           (-70.0 60.0)
  end
  begin
     id 8 
     name rtibia
     direction -0.34202 -0.939693 0   
     length 7.41043   
     axis 0 0 -20   XYZ
    dof rx
    limits (-10.0 170.0)
 end
 begin
     id 9 
     name rfoot
     direction -0.0784433 -0.215521 0.973343   
     length 1.67708  
     axis -90 -7.62852e-016 -20   XYZ
    dof rx rz
    limits (-45.0 90.0)
           (-20.0 70.0)
  end
  begin
     id 10 
     name rtoes
     direction -1.53551e-011 -4.21842e-011 1   
     length 0.849787   
     axis -90 -7.62852e-016 -20   XYZ
    dof rx
    limits (-90.0 20.0)
  end
  begin
     id 11 
     name lowerback
     direction -0.0122332 0.997575 -0.0685192   
     length 1.98724   
     axis 0 0 0   XYZ
    dof rx ry rz
    limits (-20.0 45.0)
           (-30.0 30.0)
           (-30.0 30.0)
  end
  begin
     id 12 
     name upperback
     direction 0.0182347 0.999724 -0.0148421   
     length 1.99029   
     axis 0 0 0   XYZ
    dof rx ry rz
    limits (-20.0 45.0)
           (-30.0 30.0)
           (-30.0 30.0)
  end
  begin
     id 13 
     name thorax
     direction 0.0242908 0.99956 0.0170184   
     length 1.99573   
     axis 0 0 0   XYZ
    dof rx ry rz
    limits (-20.0 45.0)
           (-30.0 30.0)
           (-30.0 30.0)
  end
  begin
     id 14 
     name lowerneck
     direction 0.0654488 0.985533 0.156338   
     length 1.4285   
     axis 0 0 0   XYZ
    dof rx ry rz
    limits (-20.0 45.0)
           (-30.0 30.0)
           (-30.0 30.0)
  end
  begin
     id 15 
     name upperneck
     direction -0.02953 0.998556 -0.0448842   
     length 1.44709   
     axis 0 0 0   XYZ
    dof rx ry rz
    limits (-20.0 45.0)
           (-30.0 30.0)
           (-30.0 30.0)
  end
  begin
     id 16
     name head
     direction -0.0155588 0.999386 -0.0314063  
     length 1.44689  
     axis 0 0 0   XYZ
    dof rx ry rz
    limits (-20.0 45.0)
           (-30.0 30.0)
           (-30.0 30.0)
  end
  begin
     id 17 
     name lclavicle
     direction 0.968229 0.236071 -0.0824755  
     length 3.60593  
     axis 0 0 0   XYZ
    dof ry rz
    limits (-20.0 10.0)
           (0.0 20.0)
  end
  begin
     id 18 
     name lhumerus
     direction 1 -4.48968e-011 7.8138e-029   
     length 5.06035   
     axis 180 -30 -90   XYZ
    dof rx ry rz
    limits (-60.0 90.0)
           (-90.0 90.0)
           (-90.0 90.0)
  end
  begin
     id 19
     name lradius
     direction 1 -4.48967e-011 9.02887e-028   
     length 3.1478   
     axis 180 -30 -90   XYZ
    dof rx
    limits (-10.0 170.0)
  end
  begin
     id 20
     name lwrist
     direction 1 -4.48961e-011 7.20928e-028   
     length 1.5739   
     axis -5.52449e-016 90 90   XYZ
    dof ry
    limits (-180.0 0.0)
 end
  begin
     id 21 
     name lhand
     direction 1 -4.48972e-011 1.44186e-027   
     length 0.606747   
     axis -9.20027e-016 90 90   XYZ
    dof rx rz
    limits (-90.0 90.0)
           (-45.0 45.0)
  end
  begin
     id 22 
     name lfingers
     direction 1 -4.48943e-011 2.88371e-027   
     length 0.489175   
     axis -1.84005e-015 90 90   XYZ
    dof rx
    limits (0.0 90.0)
  end
  begin
     id 23
     name lthumb
     direction 0.707107 -6.34917e-011 0.707107   
     length 0.70236   
     axis -90 45 2.85299e-015   XYZ
    dof rx rz
    limits (-45.0 45.0)
           (-45.0 45.0)
  end
  begin
     id 24 
     name rclavicle
     direction -0.978165 0.207816 0.0022268   
     length 3.35425  
     axis 0 0 0   XYZ 
    dof ry rz
    limits (-10.0 20.0)
           (-20.0 0.0)
  end
  begin
     id 25 
     name rhumerus
     direction -1 -4.48964e-011 -4.02159e-027  
     length 5.12273   
     axis 180 30 90   XYZ
    dof rx ry rz
    limits (-90.0 60.0)
           (-90.0 90.0)
           (-90.0 90.0)
  end
  begin
     id 26 
     name rradius
     direction -1 -4.48966e-011 1.62746e-027   
     length 3.422   
     axis 180 30 90   XYZ
    dof rx
    limits (-10.0 170.0)
  end
  begin
     id 27 
     name rwrist
     direction -1 -4.4896e-011 7.20928e-028   
     length 1.711   
     axis -5.52449e-016 -90 -90   XYZ
    dof ry
    limits (-180.0 0.0)
  end
  begin
     id 28
     name rhand
     direction -1 -4.48979e-011 1.44186e-027   
     length 0.704599   
     axis -9.20027e-016 -90 -90   XYZ
    dof rx rz
    limits (-90.0 90.0)
           (-45.0 45.0)
  end
  begin
     id 29
     name rfingers
     direction -1 -4.48962e-011 2.88371e-027   
     length 0.568066   
     axis -1.84005e-015 -90 -90   XYZ
    dof rx
    limits (0.0 90.0)
  end
  begin
     id 30
     name rthumb
     direction -0.707107 -6.34949e-011 0.707107   
     length 0.815633   
     axis -90 -45 -2.85299e-015   XYZ
    dof rx rz
    limits (-45.0 45.0)
           (-45.0 45.0)
  end
:hierarchy
  begin
    root lhipjoint rhipjoint lowerback
    lhipjoint lfemur
    lfemur ltibia
    ltibia lfoot
    lfoot ltoes
    rhipjoint rfemur
    rfemur rtibia
    rtibia rfoot
    rfoot rtoes
    lowerback upperback
    upperback thorax
    thorax lowerneck lclavicle rclavicle
    lowerneck upperneck
    upperneck head
    lclavicle lhumerus
    lhumerus lradius
    lradius lwrist
    lwrist lhand lthumb
    lhand lfingers
    rclavicle rhumerus
    rhumerus rradius
    rradius rwrist
    rwrist rhand rthumb
    rhand rfingers
  end

#!OML:ASF E:\id_vita\Project 1\Capture day 1\Session 1\Male1.ASF
:FULLY-SPECIFIED
:DEGREES
175
root 4.38802 15.722 -0.0873259 533.309 82.0434 531.359
lowerback -3.6878 -3.93817 -3.76552
upperback 1.17501 -5.10317 1.08642
thorax 3.70794 -2.63733 2.85808
lowerneck -11.6009 1.36051 3.67345
upperneck 5.5666 1.27927 -0.184552
head 3.94378 0.714672 -0.629796
rclavicle -3.7297e-014 -1.09332e-014
rhumerus -48.2755 -27.2283 -58.4825
rradius 1.92544
rwrist 28.2124
rhand -20.512 30.0167
rfingers 7.12502
rthumb 5.84551 0.117359
lclavicle -3.7297e-014 -1.09332e-014
lhumerus -6.83795 3.64572 87.5239
lradius 39.0381
lwrist 6.52898
lhand -13.9066 43.7679
lfingers 7.12502
lthumb 12.2192 73.391
rfemur -31.0588 -3.57127 19.729
rtibia 37.1443
rfoot -8.23698 -2.66735
rtoes -0.478819
lfemur 12.2893 -3.0896 -19.3389
ltibia 38.7512
lfoot 10.8521 -4.00701
ltoes 53.5763
176
root 4.59872 15.756 -0.0695341 538.334 81.9913 536.545
lowerback -3.28497 -3.90936 -3.08383
upperback 0.999688 -5.11681 1.2935
thorax 3.25817 -2.62337 2.72926
lowerneck -11.3024 1.39592 3.49358
upperneck 5.63304 1.34078 0.112882
head 3.90355 0.756009 -0.494146
rclavicle -2.98177e-016 1.19271e-015
rhumerus -48.3241 -27.1837 -58.5568
rradius 2.45265
rwrist 28.4969
rhand -20.2697 30.5147
rfingers 7.12502
rthumb 6.07946 0.621963
lclavicle -2.98177e-016 1.19271e-015
lhumerus -7.8006 3.96016 87.6226
lradius 38.3918
lwrist 6.42505
lhand -13.848 43.6585
lfingers 7.12502
lthumb 12.2757 73.2782
rfemur -29.9659 -3.65114 20.6803
rtibia 37.0499
rfoot -9.01338 -3.01609
rtoes -1.80363
lfemur 10.6375 -2.83594 -18.3992
ltibia 42.1304
lfoot 12.9276 -3.07419
ltoes 53.4655
177
root 4.81308 15.8015 -0.0520337 542.595 81.8473 540.966
lowerback -3.51631 -3.82208 -2.54482
upperback 1.29116 -5.0226 1.45943
thorax 3.651 -2.57451 2.58018
lowerneck -11.0742 1.33281 3.42748
upperneck 5.09981 1.27322 0.247511
head 3.66523 0.721817 -0.443404
rclavicle 5.31376e-014 -1.05356e-014
rhumerus -47.628 -27.8061 -58.8786
rradius 2.70841
rwrist 28.5661
rhand -20.1796 31.4542
rfingers 7.12502
rthumb 6.16642 1.56399
lclavicle 5.31376e-014 -1.05356e-014
lhumerus -8.0711 4.00989 87.8293
lradius 37.7597
lwrist 6.39476
lhand -13.9333 43.6664
lfingers 7.12502
lthumb 12.1934 73.291
rfemur -28.7285 -3.87319 21.5518
rtibia 36.7017
rfoot -9.68429 -3.29734
rtoes -3.90669
lfemur 8.95275 -2.59843 -17.5651
ltibia 45.3533
lfoot 13.6437 -2.0838
ltoes 53.9429
178
root 5.02165 15.8465 -0.0377964 545.449 81.6859 543.877
lowerback -2.97176 -3.69846 -2.04675
upperback 1.00932 -4.88956 1.53052
thorax 3.00733 -2.48914 2.43599
lowerneck -11.0369 1.244 3.33924
upperneck 5.3785 1.15205 0.408149
head 3.7519 0.670635 -0.38203
rclavicle 1.92573e-014 1.98785e-015
rhumerus -47.6871 -28.0683 -58.8084
rradius 2.89042
rwrist 28.7632
rhand -20.2006 32.2239
rfingers 7.12502
rthumb 6.14613 2.3331
lclavicle 1.92573e-014 1.98785e-015
lhumerus -9.19092 3.96064 87.9529
lradius 37.1764
lwrist 6.3579
lhand -13.8772 43.5975
lfingers 7.12502
lthumb 12.2475 73.2189
rfemur -27.5131 -4.20181 22.1916
rtibia 36.1378
rfoot -10.3066 -3.44534
rtoes -4.9378
lfemur 7.21095 -2.30246 -16.9816
ltibia 48.3438
lfoot 12.9866 -1.2814
ltoes 53.4488
179
root 5.22601 15.8898 -0.0245373 548.8 81.6622 547.22
lowerback -2.49805 -3.55005 -1.61331
upperback 0.704726 -4.71368 1.72406
thorax 2.39752 -2.38693 2.44867
lowerneck -10.9961 1.14254 3.38421
upperneck 5.5208 1.02591 0.18988
head 3.79462 0.599856 -0.471494
rclavicle 1.90895e-014 1.78906e-015
rhumerus -47.7679 -28.1507 -58.6078
rradius 3.44823
rwrist 29.1933
rhand -19.973 31.9916
rfingers 7.12502
rthumb 6.36592 2.10721
lclavicle 1.90895e-014 1.78906e-015
lhumerus -10.3515 4.11353 88.1989
lradius 36.5524
lwrist 6.25812
lhand -13.7775 43.9829
lfingers 7.12502
lthumb 12.3437 73.5986
rfemur -26.3275 -4.34844 22.8811
rtibia 35.4248
rfoot -10.8475 -3.58428
rtoes -5.19874
lfemur 5.49852 -1.82662 -16.3673
ltibia 51.0762
lfoot 11.3963 -0.475603
ltoes 52.6226
180
root 5.42921 15.9306 -0.0134307 554.499 81.5743 552.982
lowerback -2.90125 -3.34366 -0.564266
upperback 1.16468 -4.47786 1.78438
thorax 3.00796 -2.25681 1.89932
lowerneck -11.9553 1.01271 3.57758
upperneck 5.55606 0.788717 0.15281
head 3.99613 0.488444 -0.533588
rclavicle -2.88114e-014 1.41137e-014
rhumerus -46.8533 -29.1231 -59.1979
rradius 4.12857
rwrist 29.7998
rhand -19.9151 31.2706
rfingers 7.12502
rthumb 6.42177 1.38794
lclavicle -2.88114e-014 1.41137e-014
lhumerus -10.2352 3.96996 88.2259
lradius 35.7106
lwrist 6.217
lhand -13.6395 44.6771
lfingers 7.12502
lthumb 12.4767 74.2847
rfemur -25.0024 -4.37404 23.933
rtibia 34.6031
rfoot -11.3042 -3.81025
rtoes -5.0843
lfemur 3.87617 -1.33286 -15.3844
ltibia 53.5508
lfoot 9.43242 0.137717
ltoes 51.4986
181
root 5.6296 15.9686 -0.00338526 559.758 81.4061 558.341
lowerback -2.86105 -3.28813 0.191892
upperback 1.09174 -4.43392 2.06934
thorax 2.8735 -2.22036 1.77992
lowerneck -11.2825 0.977991 3.60335
upperneck 5.22553 0.78602 -0.0464539
head 3.74605 0.472348 -0.605427
rclavicle 1.72446e-014 1.98785e-016
rhumerus -46.3902 -29.1706 -59.3889
rradius 4.6105
rwrist 30.4473
rhand -19.8929 31.2434
rfingers 7.12502
rthumb 6.4432 1.36146
lclavicle 1.72446e-014 1.98785e-016
lhumerus -11.161 4.45699 88.3362
lradius 34.8603
lwrist 5.95892
lhand -13.4025 44.3675
lfingers 7.12502
lthumb 12.7052 73.961
rfemur -23.6062 -4.44908 24.9173
rtibia 33.6902
rfoot -11.6662 -3.91818
rtoes -4.87132
lfemur 2.24368 -0.870188 -14.4389
ltibia 55.7266
lfoot 7.8417 0.396307
ltoes 51.2203
182
root 5.82712 16.0066 0.00791586 563.502 81.3894 562.15
lowerback -2.8137 -3.12782 0.66664
upperback 1.07895 -4.23721 2.2407
thorax 2.80593 -2.11328 1.70659
lowerneck -10.929 1.01795 3.38332
upperneck 5.14518 0.875836 0.0862084
head 3.64635 0.516502 -0.516051
rclavicle -2.86001e-014 1.5704e-014
rhumerus -45.6794 -29.5837 -59.6861
rradius 4.81696
rwrist 31.0743
rhand -19.8636 30.9536
rfingers 7.12502
rthumb 6.47149 1.07251
lclavicle -2.86001e-014 1.5704e-014
lhumerus -11.9746 4.83594 88.4385
lradius 33.9104
lwrist 5.57553
lhand -13.3665 43.4195
lfingers 7.12502
lthumb 12.7399 73.0109
rfemur -22.2702 -4.48969 25.6198
rtibia 32.7284
rfoot -11.9391 -3.90896
rtoes -5.09577
lfemur 0.570922 -0.295194 -13.795
ltibia 57.5687
lfoot 6.59106 0.50051
ltoes 51.6129
183
root 6.0177 16.0438 0.0189555 566.053 81.4545 564.72
lowerback -2.76822 -2.95766 0.965983
upperback 1.17397 -4.02213 2.32446
thorax 2.85789 -2.00006 1.63764
lowerneck -11.2126 1.04287 3.42414
upperneck 5.28688 0.892891 0.0536585
head 3.75357 0.526372 -0.532753
rclavicle -4.82053e-015 1.03368e-014
rhumerus -44.6751 -30.1461 -60.1609
rradius 5.13946
rwrist 31.6042
rhand -19.796 30.4191
rfingers 7.12502
rthumb 6.53674 0.539984
lclavicle -4.82053e-015 1.03368e-014
lhumerus -12.5898 5.44376 88.5192
lradius 32.9063
lwrist 4.97821
lhand -13.5608 43.2883
lfingers 7.12502
lthumb 12.5526 72.8912
rfemur -21.0554 -4.52084 26.0942
rtibia 31.8403
rfoot -12.2377 -3.94458
rtoes -5.97469
lfemur -1.13327 0.269292 -13.443
ltibia 59.0854
lfoot 5.23922 0.490471
ltoes 51.5089
184
root 6.20583 16.0778 0.0312686 568.291 81.5646 566.962
lowerback -2.58769 -2.81134 1.1621
upperback 1.17577 -3.82893 2.39769
thorax 2.74579 -1.90019 1.62359
lowerneck -11.7092 1.09673 3.66207
upperneck 5.74019 0.921611 -0.176252
head 4.01941 0.540298 -0.65055
rclavicle 3.86015e-014 5.96354e-015
rhumerus -43.8414 -30.5003 -60.5736
rradius 5.75558
rwrist 32.1118
rhand -19.5314 30.523
rfingers 7.12502
rthumb 6.79219 0.651994
lclavicle 3.86015e-014 5.96354e-015
lhumerus -13.314 6.48556 88.5495
lradius 31.8235
lwrist 4.04586
lhand -13.5123 43.7432
lfingers 7.12502
lthumb 12.5993 73.3432
rfemur -19.939 -4.49938 26.4823
rtibia 31.1031
rfoot -12.5916 -4.00454
rtoes -6.33824
lfemur -2.78165 0.81081 -13.2105
ltibia 60.2927
lfoot 3.605 0.169869
ltoes 50.8973
